<svg width="120" height="120" viewBox="0 0 120 120" fill="none" xmlns="http://www.w3.org/2000/svg">
<path d="M60 84C73.2548 84 84 73.2548 84 60C84 46.7452 73.2548 36 60 36C46.7451 36 36 46.7452 36 60C36 73.2548 46.7451 84 60 84Z" fill="#F2F3F7"/>
<path fill-rule="evenodd" clip-rule="evenodd" d="M49.8176 59.4376C49.0678 58.6878 49.0678 57.4721 49.8176 56.7223L58.6423 47.8976C59.3921 47.1478 60.6078 47.1478 61.3576 47.8976L70.1823 56.7223C70.9321 57.4721 70.9321 58.6878 70.1823 59.4376C69.4325 60.1874 68.2168 60.1874 67.467 59.4376L60 51.9706L52.5329 59.4376C51.7831 60.1874 50.5674 60.1874 49.8176 59.4376Z" fill="#55BDF6"/>
<path fill-rule="evenodd" clip-rule="evenodd" d="M60 22.56C54.698 22.56 50.4 26.858 50.4 32.16C50.4 37.4619 54.698 41.76 60 41.76C65.3019 41.76 69.6 37.4619 69.6 32.16C69.6 26.858 65.3019 22.56 60 22.56ZM46.56 32.16C46.56 24.7373 52.5773 18.72 60 18.72C67.4227 18.72 73.44 24.7373 73.44 32.16C73.44 39.5827 67.4227 45.6 60 45.6C52.5773 45.6 46.56 39.5827 46.56 32.16Z" fill="black"/>
<path fill-rule="evenodd" clip-rule="evenodd" d="M96.48 57.9712H100.32V60.4799C100.32 82.7481 82.2681 100.8 60 100.8C41.7342 100.8 26.3099 88.6555 21.3517 72.0048L25.032 70.9089C29.5187 85.9764 43.4792 96.9599 60 96.9599C80.1473 96.9599 96.48 80.6273 96.48 60.4799V57.9712Z" fill="#55BDF6"/>
<path fill-rule="evenodd" clip-rule="evenodd" d="M21.6 50.4C16.298 50.4 12 54.6981 12 60C12 65.3019 16.298 69.6 21.6 69.6C26.9019 69.6 31.2 65.3019 31.2 60C31.2 54.6981 26.9019 50.4 21.6 50.4ZM8.15997 60C8.15997 52.5773 14.1773 46.56 21.6 46.56C29.0227 46.56 35.04 52.5773 35.04 60C35.04 67.4227 29.0227 73.44 21.6 73.44C14.1773 73.44 8.15997 67.4227 8.15997 60Z" fill="#55BDF6"/>
<path fill-rule="evenodd" clip-rule="evenodd" d="M98.4 36.96C93.098 36.96 88.8 41.2581 88.8 46.56C88.8 51.8619 93.098 56.16 98.4 56.16C103.702 56.16 108 51.8619 108 46.56C108 41.2581 103.702 36.96 98.4 36.96ZM84.96 46.56C84.96 39.1373 90.9773 33.12 98.4 33.12C105.823 33.12 111.84 39.1373 111.84 46.56C111.84 53.9827 105.823 60 98.4 60C90.9773 60 84.96 53.9827 84.96 46.56Z" fill="#55BDF6"/>
<path fill-rule="evenodd" clip-rule="evenodd" d="M62.0296 49.2137L61.6662 100.094L57.8263 100.066L58.1897 49.1863L62.0296 49.2137Z" fill="#55BDF6"/>
</svg>
