<svg width="120" height="120" viewBox="0 0 120 120" fill="none" xmlns="http://www.w3.org/2000/svg">
<path d="M60 84C73.2548 84 84 73.2548 84 60C84 46.7452 73.2548 36 60 36C46.7451 36 36 46.7452 36 60C36 73.2548 46.7451 84 60 84Z" fill="#F2F3F7"/>
<path fill-rule="evenodd" clip-rule="evenodd" d="M60 22.56C39.3224 22.56 22.56 39.3224 22.56 60C22.56 80.6775 39.3224 97.44 60 97.44C80.6775 97.44 97.44 80.6775 97.44 60C97.44 39.3224 80.6775 22.56 60 22.56ZM18.72 60C18.72 37.2017 37.2017 18.72 60 18.72C82.7983 18.72 101.28 37.2017 101.28 60C101.28 82.7983 82.7983 101.28 60 101.28C37.2017 101.28 18.72 82.7983 18.72 60Z" fill="#55BDF6"/>
<path fill-rule="evenodd" clip-rule="evenodd" d="M72.0757 47.911C71.3296 47.1575 71.3355 45.9419 72.0889 45.1957L97.7821 19.752C98.5355 19.0058 99.7512 19.0118 100.497 19.7652C101.243 20.5187 101.238 21.7343 100.484 22.4805L74.791 47.9242C74.0375 48.6704 72.8218 48.6644 72.0757 47.911Z" fill="#55BDF6"/>
<path fill-rule="evenodd" clip-rule="evenodd" d="M85.1324 20.9194C85.1324 19.859 85.9921 18.9994 87.0524 18.9994L99.5324 18.9994C100.593 18.9994 101.452 19.859 101.452 20.9194V33.3994C101.452 34.4598 100.593 35.3194 99.5324 35.3194C98.4721 35.3194 97.6124 34.4598 97.6124 33.3994V22.8394L87.0524 22.8394C85.9921 22.8394 85.1324 21.9798 85.1324 20.9194Z" fill="#55BDF6"/>
<path fill-rule="evenodd" clip-rule="evenodd" d="M48.0967 72.3252C48.8429 73.0787 48.8369 74.2943 48.0835 75.0405L22.3904 100.484C21.6369 101.23 20.4212 101.224 19.6751 100.471C18.929 99.7175 18.9349 98.5019 19.6883 97.7557L45.3815 72.312C46.1349 71.5658 47.3506 71.5718 48.0967 72.3252Z" fill="#55BDF6"/>
<path fill-rule="evenodd" clip-rule="evenodd" d="M35.04 99.3168C35.04 100.377 34.1804 101.237 33.12 101.237H20.64C19.5796 101.237 18.72 100.377 18.72 99.3168V86.8368C18.72 85.7764 19.5796 84.9168 20.64 84.9168C21.7004 84.9168 22.56 85.7764 22.56 86.8368V97.3968H33.12C34.1804 97.3968 35.04 98.2564 35.04 99.3168Z" fill="#55BDF6"/>
<path fill-rule="evenodd" clip-rule="evenodd" d="M60 50.3999C54.698 50.3999 50.4 54.698 50.4 59.9999C50.4 65.3019 54.698 69.5999 60 69.5999C65.3019 69.5999 69.6 65.3019 69.6 59.9999C69.6 54.698 65.3019 50.3999 60 50.3999ZM46.56 59.9999C46.56 52.5772 52.5773 46.5599 60 46.5599C67.4227 46.5599 73.44 52.5772 73.44 59.9999C73.44 67.4226 67.4227 73.4399 60 73.4399C52.5773 73.4399 46.56 67.4226 46.56 59.9999Z" fill="black"/>
</svg>
