<svg width="120" height="120" viewBox="0 0 120 120" fill="none" xmlns="http://www.w3.org/2000/svg">
<path fill-rule="evenodd" clip-rule="evenodd" d="M25.4401 59.04C25.4401 39.953 40.9131 24.48 60.0001 24.48C79.087 24.48 94.5601 39.953 94.5601 59.04V60.96H90.7201V59.04C90.7201 42.0738 76.9662 28.32 60.0001 28.32C43.0339 28.32 29.2801 42.0738 29.2801 59.04V60.96H25.4401V59.04Z" fill="black"/>
<path d="M60.0001 84C73.2549 84 84.0001 73.2548 84.0001 60C84.0001 46.7452 73.2549 36 60.0001 36C46.7452 36 36.0001 46.7452 36.0001 60C36.0001 73.2548 46.7452 84 60.0001 84Z" fill="#F2F3F7"/>
<path fill-rule="evenodd" clip-rule="evenodd" d="M60.0001 90.72C58.3458 90.72 56.7233 90.5894 55.1421 90.3383C54.0949 90.172 53.1111 90.8862 52.9448 91.9335C52.7785 92.9807 53.4926 93.9645 54.5399 94.1308C56.3196 94.4134 58.1434 94.56 60.0001 94.56C61.8568 94.56 63.6806 94.4134 65.4602 94.1308C66.5075 93.9645 67.2216 92.9807 67.0553 91.9335C66.8891 90.8862 65.9053 90.172 64.858 90.3383C63.2768 90.5894 61.6544 90.72 60.0001 90.72ZM69.8591 91.1842C70.2377 92.1747 71.3476 92.6707 72.3381 92.292C75.7909 90.9721 78.9765 89.115 81.7932 86.8239C82.6159 86.1548 82.7403 84.9455 82.0712 84.1229C81.4021 83.3003 80.1928 83.1758 79.3702 83.8449C76.8648 85.8828 74.0332 87.533 70.9669 88.7052C69.9764 89.0838 69.4804 90.1937 69.8591 91.1842ZM50.141 91.1842C50.5197 90.1937 50.0237 89.0838 49.0332 88.7052C45.9669 87.533 43.1353 85.8828 40.6299 83.8449C39.8073 83.1758 38.598 83.3003 37.9289 84.1229C37.2598 84.9455 37.3842 86.1548 38.2069 86.8239C41.0236 89.115 44.2092 90.9721 47.662 92.292C48.6525 92.6707 49.7624 92.1747 50.141 91.1842ZM84.1229 82.0711C84.9456 82.7403 86.1549 82.6158 86.824 81.7932C89.1151 78.9765 90.9721 75.7908 92.2921 72.3381C92.6707 71.3476 92.1748 70.2377 91.1843 69.859C90.1938 69.4804 89.0839 69.9764 88.7053 70.9668C87.533 74.0332 85.8829 76.8647 83.845 79.3701C83.1759 80.1927 83.3003 81.402 84.1229 82.0711ZM35.8772 82.0711C36.6998 81.402 36.8242 80.1927 36.1551 79.3701C34.1173 76.8647 32.4671 74.0332 31.2949 70.9668C30.9162 69.9764 29.8063 69.4804 28.8158 69.859C27.8254 70.2377 27.3294 71.3476 27.708 72.3381C29.028 75.7908 30.8851 78.9765 33.1761 81.7932C33.8453 82.6158 35.0545 82.7403 35.8772 82.0711ZM91.9335 67.0553C92.9808 67.2216 93.9646 66.5074 94.1309 65.4601C94.4135 63.6805 94.5601 61.8567 94.5601 60C94.5601 58.9396 93.7004 58.08 92.6401 58.08C91.5797 58.08 90.7201 58.9396 90.7201 60C90.7201 61.6543 90.5895 63.2767 90.3384 64.8579C90.1721 65.9052 90.8863 66.889 91.9335 67.0553ZM28.0666 67.0553C29.1139 66.889 29.828 65.9052 29.6617 64.8579C29.4106 63.2767 29.2801 61.6543 29.2801 60C29.2801 58.9396 28.4204 58.08 27.3601 58.08C26.2997 58.08 25.4401 58.9396 25.4401 60C25.4401 61.8567 25.5867 63.6805 25.8692 65.4601C26.0355 66.5074 27.0193 67.2216 28.0666 67.0553Z" fill="#55BDF6"/>
<path fill-rule="evenodd" clip-rule="evenodd" d="M7.63599 60C7.63599 61.0604 8.4956 61.92 9.55599 61.92H109.44C110.5 61.92 111.36 61.0604 111.36 60C111.36 58.9396 110.5 58.08 109.44 58.08H9.55599C8.4956 58.08 7.63599 58.9396 7.63599 60Z" fill="#55BDF6"/>
<path fill-rule="evenodd" clip-rule="evenodd" d="M100.402 70.367C101.152 71.1168 102.368 71.1168 103.118 70.367L111.942 61.5423C112.692 60.7925 112.692 59.5769 111.942 58.827L103.118 50.0024C102.368 49.2525 101.152 49.2525 100.402 50.0024C99.6526 50.7522 99.6526 51.9678 100.402 52.7176L107.869 60.1847L100.402 67.6517C99.6526 68.4015 99.6526 69.6172 100.402 70.367Z" fill="#55BDF6"/>
</svg>
