<svg width="120" height="120" viewBox="0 0 120 120" fill="none" xmlns="http://www.w3.org/2000/svg">
<path d="M59.52 84C72.7748 84 83.52 73.2548 83.52 60C83.52 46.7452 72.7748 36 59.52 36C46.2651 36 35.52 46.7452 35.52 60C35.52 73.2548 46.2651 84 59.52 84Z" fill="#F2F3F7"/>
<path fill-rule="evenodd" clip-rule="evenodd" d="M60.4799 22.56C39.8024 22.56 23.04 39.3224 23.04 60C23.04 80.6775 39.8024 97.44 60.4799 97.44C81.1575 97.44 97.92 80.6775 97.92 60C97.92 39.3224 81.1575 22.56 60.4799 22.56ZM19.2 60C19.2 37.2017 37.6816 18.72 60.4799 18.72C83.2783 18.72 101.76 37.2017 101.76 60C101.76 82.7983 83.2783 101.28 60.4799 101.28C37.6816 101.28 19.2 82.7983 19.2 60Z" fill="#55BDF6"/>
<path fill-rule="evenodd" clip-rule="evenodd" d="M80.6399 50.4001C75.338 50.4001 71.04 54.6981 71.04 60.0001C71.04 65.302 75.338 69.6001 80.6399 69.6001C85.9419 69.6001 90.2399 65.302 90.2399 60.0001C90.2399 54.6981 85.9419 50.4001 80.6399 50.4001ZM67.2 60.0001C67.2 52.5774 73.2172 46.5601 80.6399 46.5601C88.0627 46.5601 94.0799 52.5774 94.0799 60.0001C94.0799 67.4228 88.0627 73.4401 80.6399 73.4401C73.2172 73.4401 67.2 67.4228 67.2 60.0001Z" fill="black"/>
<path fill-rule="evenodd" clip-rule="evenodd" d="M7.19996 45.602C7.19879 44.5417 8.05745 43.6811 9.11784 43.6799L60.0853 43.6236C61.1457 43.6224 62.0062 44.4811 62.0074 45.5415C62.0086 46.6018 61.1499 47.4624 60.0895 47.4636L9.12208 47.5199C8.0617 47.5211 7.20113 46.6624 7.19996 45.602Z" fill="#55BDF6"/>
<path fill-rule="evenodd" clip-rule="evenodd" d="M50.3266 35.5045C51.0764 34.7547 52.2921 34.7547 53.0419 35.5045L61.8666 44.3292C62.6164 45.079 62.6164 46.2947 61.8666 47.0445L53.0419 55.8692C52.2921 56.619 51.0764 56.619 50.3266 55.8692C49.5768 55.1194 49.5768 53.9037 50.3266 53.1539L57.7937 45.6868L50.3266 38.2198C49.5768 37.47 49.5768 36.2543 50.3266 35.5045Z" fill="#55BDF6"/>
<path fill-rule="evenodd" clip-rule="evenodd" d="M6.71992 74.4021C6.71875 73.3417 7.57743 72.4811 8.63781 72.48L60.0852 72.4236C61.1456 72.4225 62.0062 73.2811 62.0073 74.3415C62.0085 75.4019 61.1498 76.2625 60.0894 76.2636L8.64202 76.32C7.58163 76.3211 6.72108 75.4624 6.71992 74.4021Z" fill="#55BDF6"/>
<path fill-rule="evenodd" clip-rule="evenodd" d="M50.3267 64.3045C51.0765 63.5547 52.2922 63.5547 53.042 64.3045L61.8667 73.1292C62.6165 73.879 62.6165 75.0947 61.8667 75.8445L53.042 84.6692C52.2922 85.419 51.0765 85.419 50.3267 84.6692C49.5769 83.9194 49.5769 82.7037 50.3267 81.9539L57.7937 74.4869L50.3267 67.0198C49.5769 66.27 49.5769 65.0544 50.3267 64.3045Z" fill="#55BDF6"/>
</svg>
