<svg width="120" height="120" viewBox="0 0 120 120" fill="none" xmlns="http://www.w3.org/2000/svg">
<g clip-path="url(#clip0)">
<path d="M60 84C73.2548 84 84 73.2548 84 60C84 46.7452 73.2548 36 60 36C46.7452 36 36 46.7452 36 60C36 73.2548 46.7452 84 60 84Z" fill="#F2F3F7"/>
<path fill-rule="evenodd" clip-rule="evenodd" d="M22.56 74.8799C22.56 82.046 28.359 87.8607 35.5251 87.88L98.6126 88.0498C99.673 88.0527 100.53 88.9146 100.527 89.975C100.525 91.0354 99.6626 91.8927 98.6023 91.8898L35.5148 91.72C26.232 91.695 18.72 84.1628 18.72 74.8799C18.72 65.6015 26.2416 58.0799 35.52 58.0799L79.5872 58.0799C89.2642 58.0799 97.109 50.2351 97.109 40.558C97.109 30.881 89.2642 23.0362 79.5872 23.0362L20.64 23.0362C19.5796 23.0362 18.72 22.1766 18.72 21.1162C18.72 20.0558 19.5796 19.1962 20.64 19.1962L79.5872 19.1962C91.385 19.1962 100.949 28.7602 100.949 40.558C100.949 52.3559 91.385 61.9199 79.5872 61.9199L35.52 61.9199C28.3624 61.9199 22.56 67.7223 22.56 74.8799Z" fill="#55BDF6"/>
<path fill-rule="evenodd" clip-rule="evenodd" d="M88.8466 79.9307C89.5964 79.1809 90.8121 79.1809 91.5619 79.9307L100.387 88.7554C101.136 89.5052 101.136 90.7209 100.387 91.4707L91.5619 100.295C90.8121 101.045 89.5964 101.045 88.8466 100.295C88.0968 99.5456 88.0968 98.3299 88.8466 97.5801L96.3137 90.113L88.8466 82.646C88.0968 81.8962 88.0968 80.6805 88.8466 79.9307Z" fill="#55BDF6"/>
<path fill-rule="evenodd" clip-rule="evenodd" d="M79.68 30.72C74.3781 30.72 70.08 35.0181 70.08 40.32C70.08 45.6219 74.3781 49.92 79.68 49.92C84.9819 49.92 89.28 45.6219 89.28 40.32C89.28 35.0181 84.9819 30.72 79.68 30.72ZM66.24 40.32C66.24 32.8973 72.2573 26.88 79.68 26.88C87.1027 26.88 93.12 32.8973 93.12 40.32C93.12 47.7427 87.1027 53.76 79.68 53.76C72.2573 53.76 66.24 47.7427 66.24 40.32Z" fill="black"/>
</g>
<defs>
<clipPath id="clip0">
<rect width="120" height="120" fill="white"/>
</clipPath>
</defs>
</svg>
