<svg width="120" height="120" viewBox="0 0 120 120" fill="none" xmlns="http://www.w3.org/2000/svg">
<path d="M60 84C73.2548 84 84 73.2548 84 60C84 46.7452 73.2548 36 60 36C46.7452 36 36 46.7452 36 60C36 73.2548 46.7452 84 60 84Z" fill="#F2F3F7"/>
<path fill-rule="evenodd" clip-rule="evenodd" d="M60 50.3999C54.6981 50.3999 50.4 54.698 50.4 59.9999C50.4 65.3019 54.6981 69.5999 60 69.5999C65.3019 69.5999 69.6 65.3019 69.6 59.9999C69.6 54.698 65.3019 50.3999 60 50.3999ZM46.56 59.9999C46.56 52.5772 52.5773 46.5599 60 46.5599C67.4227 46.5599 73.44 52.5772 73.44 59.9999C73.44 67.4226 67.4227 73.4399 60 73.4399C52.5773 73.4399 46.56 67.4226 46.56 59.9999Z" fill="black"/>
<path fill-rule="evenodd" clip-rule="evenodd" d="M25.4924 58.0799C26.4887 39.886 41.5573 25.4399 60 25.4399C78.4427 25.4399 93.5113 39.886 94.5076 58.0799H111.36C112.42 58.0799 113.28 58.9396 113.28 59.9999C113.28 61.0603 112.42 61.9199 111.36 61.9199H92.6401C92.64 61.9199 92.64 61.9199 92.64 59.9999L92.6401 61.9199C91.5797 61.9199 90.72 61.0603 90.72 59.9999C90.72 43.0338 76.9662 29.2799 60 29.2799C43.0338 29.2799 29.28 43.0338 29.28 59.9999C29.28 61.0603 28.4204 61.9199 27.36 61.9199V59.9999C27.36 61.9199 27.36 61.9199 27.36 61.9199H8.59593C7.53555 61.9199 6.67593 61.0603 6.67593 59.9999C6.67593 58.9396 7.53555 58.0799 8.59593 58.0799H25.4924Z" fill="#55BDF6"/>
<path fill-rule="evenodd" clip-rule="evenodd" d="M101.362 49.6329C102.112 48.8831 103.328 48.8831 104.078 49.6329L112.902 58.4576C113.652 59.2074 113.652 60.4231 112.902 61.1729L104.078 69.9976C103.328 70.7474 102.112 70.7474 101.362 69.9976C100.613 69.2478 100.613 68.0321 101.362 67.2823L108.829 59.8152L101.362 52.3482C100.613 51.5984 100.613 50.3827 101.362 49.6329Z" fill="#55BDF6"/>
</svg>
