<svg width="120" height="120" viewBox="0 0 120 120" fill="none" xmlns="http://www.w3.org/2000/svg">
<path d="M39.36 84C52.6148 84 63.36 73.2548 63.36 60C63.36 46.7452 52.6148 36 39.36 36C26.1052 36 15.36 46.7452 15.36 60C15.36 73.2548 26.1052 84 39.36 84Z" fill="#F2F3F7"/>
<path fill-rule="evenodd" clip-rule="evenodd" d="M70.6424 22.2729C71.3922 21.5231 72.6078 21.5231 73.3576 22.2729L82.1823 31.0976C82.9321 31.8474 82.9321 33.0631 82.1823 33.8129L73.3576 42.6376C72.6078 43.3874 71.3922 43.3874 70.6424 42.6376C69.8925 41.8878 69.8925 40.6721 70.6424 39.9223L78.1094 32.4553L70.6424 24.9882C69.8925 24.2384 69.8925 23.0227 70.6424 22.2729Z" fill="#55BDF6"/>
<path fill-rule="evenodd" clip-rule="evenodd" d="M70.6424 77.3623C71.3922 76.6125 72.6078 76.6125 73.3576 77.3623L82.1823 86.187C82.9321 86.9368 82.9321 88.1525 82.1823 88.9023L73.3576 97.727C72.6078 98.4768 71.3922 98.4768 70.6424 97.727C69.8925 96.9772 69.8925 95.7615 70.6424 95.0117L78.1094 87.5446L70.6424 80.0776C69.8925 79.3278 69.8925 78.1121 70.6424 77.3623Z" fill="#55BDF6"/>
<path fill-rule="evenodd" clip-rule="evenodd" d="M59.3486 89.4171C43.1398 89.4171 30 76.2773 30 60.0685C30 43.8598 43.1398 30.72 59.3486 30.72H79.92V34.56H59.3486C45.2606 34.56 33.84 45.9805 33.84 60.0685C33.84 74.1565 45.2606 85.5771 59.3486 85.5771H79.92V89.4171H59.3486Z" fill="#55BDF6"/>
<path fill-rule="evenodd" clip-rule="evenodd" d="M98.88 23.04C93.5781 23.04 89.28 27.338 89.28 32.64C89.28 37.9419 93.5781 42.24 98.88 42.24C104.182 42.24 108.48 37.9419 108.48 32.64C108.48 27.338 104.182 23.04 98.88 23.04ZM85.44 32.64C85.44 25.2172 91.4573 19.2 98.88 19.2C106.303 19.2 112.32 25.2172 112.32 32.64C112.32 40.0627 106.303 46.08 98.88 46.08C91.4573 46.08 85.44 40.0627 85.44 32.64Z" fill="black"/>
<path fill-rule="evenodd" clip-rule="evenodd" d="M98.88 78.2399C93.5781 78.2399 89.28 82.538 89.28 87.8399C89.28 93.1418 93.5781 97.4399 98.88 97.4399C104.182 97.4399 108.48 93.1418 108.48 87.8399C108.48 82.538 104.182 78.2399 98.88 78.2399ZM85.44 87.8399C85.44 80.4172 91.4573 74.3999 98.88 74.3999C106.303 74.3999 112.32 80.4172 112.32 87.8399C112.32 95.2626 106.303 101.28 98.88 101.28C91.4573 101.28 85.44 95.2626 85.44 87.8399Z" fill="#55BDF6"/>
<path fill-rule="evenodd" clip-rule="evenodd" d="M7.63595 59.9941C7.6392 58.9337 8.50144 58.0767 9.56182 58.08L31.9255 58.1485C31.9256 58.1485 31.9259 58.1485 31.92 60.0685C31.9141 61.9885 31.9141 61.9885 31.914 61.9885L9.55005 61.9199C8.48967 61.9167 7.63269 61.0544 7.63595 59.9941ZM33.84 60.0744C33.8367 61.1348 32.9744 61.9918 31.914 61.9885L31.92 60.0685L31.9255 58.1485C32.9859 58.1518 33.8432 59.014 33.84 60.0744Z" fill="#55BDF6"/>
</svg>
