<svg width="168" height="21" viewBox="0 0 168 21" fill="none" xmlns="http://www.w3.org/2000/svg">
<path d="M11.5797 14.567C11.5797 16.6241 11.0814 18.1669 10.0848 19.1955C9.08829 20.224 7.6847 20.7383 5.87406 20.7383H0.368444C0.122815 20.7383 0 20.6173 0 20.3753V0.630594C0 0.388583 0.122815 0.267578 0.368444 0.267578H5.87932C7.72505 0.267578 9.12865 0.787523 10.0901 1.82741C11.0516 2.8673 11.5481 4.33827 11.5797 6.24033V14.567ZM8.99004 5.9397C9.02913 5.47434 8.96721 5.00555 8.80917 4.57042C8.65112 4.13529 8.4013 3.74576 8.07946 3.43262C7.40102 2.89068 6.5704 2.61634 5.72668 2.65554H2.86334C2.67736 2.65554 2.58437 2.74441 2.58437 2.92213V18.0157C2.58437 18.2142 2.66859 18.3163 2.83176 18.3163H5.94248C6.36089 18.3522 6.78162 18.2925 7.1771 18.141C7.57259 17.9895 7.9339 17.7496 8.23736 17.4371C8.77005 16.7587 9.03963 15.8852 8.99004 14.9981V5.9397Z" fill="#9B9B9B"/>
<path d="M26.7489 20.7329H16.7483C16.6672 20.7413 16.5853 20.731 16.5082 20.7026C16.431 20.6742 16.3604 20.6285 16.3009 20.5684C16.2142 20.4705 16.1653 20.3407 16.1641 20.2053V19.1446C16.1671 18.8206 16.241 18.5018 16.3799 18.2144L23.7487 3.05236C23.8909 2.78576 23.8224 2.6553 23.5329 2.6553H16.9904C16.743 2.6553 16.622 2.53618 16.622 2.29227V0.630293C16.622 0.386385 16.743 0.267267 16.9904 0.267267H26.2542C26.4404 0.246168 26.6274 0.298567 26.7805 0.414747C26.8299 0.475814 26.8675 0.546925 26.891 0.623886C26.9145 0.700848 26.9235 0.782102 26.9174 0.862857V1.82715C26.9128 2.07792 26.8664 2.32577 26.7805 2.55887C26.7078 2.77564 26.6198 2.98613 26.5173 3.18849L19.4064 17.9364C19.2625 18.2011 19.3239 18.3335 19.5906 18.3335H26.7489C26.8447 18.3297 26.9384 18.364 27.0121 18.4299C27.048 18.4625 27.0766 18.5034 27.0958 18.5495C27.1149 18.5957 27.1241 18.646 27.1226 18.6965V20.3528C27.1272 20.406 27.1205 20.4595 27.103 20.5094C27.0855 20.5593 27.0577 20.6043 27.0217 20.6409C26.9857 20.6775 26.9424 20.7048 26.8951 20.7208C26.8479 20.7367 26.7979 20.7408 26.7489 20.7329Z" fill="#9B9B9B"/>
<path d="M48.2663 18.4814C49.2794 18.5297 50.2809 18.2341 51.1297 17.6362C51.4983 17.349 51.7935 16.9658 51.9877 16.5225C52.1819 16.0791 52.2688 15.59 52.2403 15.1007C52.2551 14.6071 52.1441 14.1186 51.9192 13.6883C51.7061 13.3058 51.4232 12.9739 51.0876 12.7127C50.7348 12.4383 50.3532 12.2098 49.9507 12.032C49.5296 11.8429 49.1138 11.6709 48.7032 11.5158C48.1067 11.2965 47.4803 11.0413 46.8241 10.7501C46.1798 10.4687 45.5727 10.0967 45.0188 9.64399C44.4805 9.19804 44.0281 8.64312 43.6871 8.01037C43.3143 7.28658 43.1322 6.46665 43.1608 5.63937C43.1479 4.82507 43.295 4.01705 43.5924 3.26836C43.8543 2.59593 44.2454 1.99086 44.7398 1.49294C45.2528 0.990853 45.8542 0.605055 46.5083 0.358489C47.2144 0.107644 47.9546 -0.0131651 48.6979 0.00113606C49.5367 0.0133749 50.3723 0.114065 51.1928 0.301766C52.1794 0.531708 53.1056 0.996877 53.9035 1.66311C54.0895 1.81815 54.1509 1.95618 54.0878 2.07719L53.9351 2.39483L53.1982 3.65407C53.1616 3.72243 53.1072 3.77769 53.0417 3.81299C52.9762 3.84828 52.9025 3.86206 52.8298 3.8526C52.6865 3.83139 52.5497 3.77512 52.4298 3.68811C51.8465 3.30324 51.2273 2.98573 50.5823 2.74084C49.6518 2.41034 48.6535 2.371 47.7031 2.62739C47.3187 2.73331 46.9597 2.92672 46.6504 3.19462C46.3455 3.46043 46.1037 3.8007 45.9451 4.18727C45.7561 4.67536 45.6663 5.20148 45.682 5.73012C45.6789 6.13475 45.7909 6.53068 46.003 6.86458C46.2307 7.21299 46.5162 7.513 46.8452 7.74945C47.2138 8.01574 47.6051 8.24366 48.0137 8.43012C48.4453 8.63054 48.8769 8.81962 49.3085 8.99735C49.9857 9.28474 50.6525 9.57781 51.3086 9.87655C51.939 10.1651 52.5289 10.5469 53.0614 11.011C53.5762 11.4559 54.0008 12.01 54.3088 12.6389C54.6525 13.4031 54.817 14.2464 54.7878 15.095C54.8003 15.9365 54.6366 16.7702 54.3088 17.5341C53.9963 18.2451 53.5372 18.8698 52.9666 19.3606C52.3492 19.8718 51.6498 20.2563 50.9033 20.495C50.0515 20.78 49.1635 20.9197 48.2716 20.9091C47.1504 20.9191 46.0377 20.6997 44.9925 20.2625C44.0508 19.8913 43.2322 19.2282 42.6397 18.3566C42.4555 18.1354 42.4976 17.9142 42.7607 17.6929L43.8976 16.5585C44.0205 16.4488 44.1292 16.4205 44.224 16.4734C44.3532 16.5633 44.4716 16.67 44.5766 16.791C45.0392 17.3365 45.6069 17.7663 46.2399 18.0503C46.8811 18.3413 47.5707 18.488 48.2663 18.4814Z" fill="#9B9B9B"/>
<path d="M68.278 12.6047C68.1747 12.8545 68.1227 13.1254 68.1254 13.3988V20.3359C68.1324 20.3898 68.1277 20.4447 68.1117 20.4963C68.0956 20.5479 68.0687 20.5948 68.033 20.6333C67.9973 20.6718 67.9537 20.7008 67.9058 20.7181C67.8579 20.7354 67.807 20.7405 67.757 20.7329H65.9095C65.6638 20.7329 65.541 20.6119 65.541 20.3699V13.3365C65.5489 13.1081 65.5075 12.8809 65.42 12.6728L60.6828 0.829383C60.539 0.45124 60.6407 0.262169 60.9881 0.262169H62.7408C62.8703 0.243888 63.0018 0.268906 63.1176 0.333836C63.2334 0.398766 63.3279 0.500472 63.3883 0.625186L66.7148 9.70061C66.8165 9.87834 66.9095 9.88968 66.9937 9.73465C67.5482 8.22207 68.1026 6.7095 68.657 5.19693C69.2114 3.68436 69.7553 2.17179 70.2887 0.659219C70.3448 0.535666 70.4279 0.428619 70.5308 0.347251C70.6763 0.278121 70.8355 0.248891 70.994 0.262169H72.6888C72.9134 0.262169 73.0415 0.311327 73.0731 0.409644C73.0987 0.538407 73.082 0.672767 73.0257 0.789678L68.278 12.6047Z" fill="#9B9B9B"/>
<path d="M84.2158 18.4812C85.2289 18.5295 86.2304 18.2339 87.0792 17.6361C87.4478 17.3488 87.743 16.9657 87.9372 16.5223C88.1314 16.079 88.2183 15.5899 88.1898 15.1006C88.2046 14.607 88.0936 14.1185 87.8687 13.6882C87.6556 13.3057 87.3727 12.9738 87.0371 12.7126C86.6843 12.4382 86.3027 12.2097 85.9002 12.0319C85.4791 11.8428 85.0633 11.6708 84.6527 11.5157C84.0562 11.2964 83.4298 11.0412 82.7736 10.75C82.1329 10.4677 81.5295 10.0958 80.9788 9.64392C80.4324 9.19853 79.9727 8.6415 79.6261 8.00465C79.2532 7.28085 79.0712 6.46093 79.0997 5.63366C79.0868 4.81937 79.2339 4.01135 79.5313 3.26267C79.8041 2.58661 80.2079 1.98125 80.7156 1.48726C81.2286 0.985177 81.83 0.599382 82.4841 0.352818C83.1855 0.105785 83.9202 -0.0130809 84.658 0.00114051C85.4967 0.0133793 86.3323 0.114069 87.1529 0.301768C88.1394 0.531708 89.0657 0.996874 89.8636 1.6631C90.0495 1.81814 90.111 1.95617 90.0478 2.07717L89.8952 2.39482L89.1583 3.65405C89.1217 3.72241 89.0672 3.77767 89.0017 3.81296C88.9362 3.84826 88.8625 3.86203 88.7898 3.85258C88.6466 3.83136 88.5097 3.77509 88.3898 3.68808C87.8066 3.30322 87.1873 2.98571 86.5423 2.74082C85.6119 2.41033 84.6135 2.37099 83.6632 2.62738C83.2787 2.73329 82.9198 2.92671 82.6105 3.1946C82.3055 3.4604 82.0638 3.80068 81.9052 4.18724C81.7161 4.67532 81.6263 5.20144 81.642 5.73008C81.6389 6.13471 81.751 6.53063 81.9631 6.86453C82.1928 7.21142 82.4801 7.5095 82.8105 7.74372C83.1791 8.01004 83.5703 8.23796 83.979 8.42439C84.4106 8.62481 84.8422 8.81388 85.2738 8.99161C85.951 9.27901 86.6177 9.57207 87.2739 9.87081C87.9043 10.1593 88.4942 10.5412 89.0267 11.0052C89.5416 11.4501 89.9662 12.0042 90.2741 12.6332C90.6178 13.3973 90.7823 14.2407 90.7531 15.0893C90.7656 15.9307 90.6019 16.7644 90.2741 17.5283C89.9643 18.2268 89.5128 18.8412 88.953 19.3264C88.3355 19.8376 87.6362 20.2221 86.8897 20.4608C86.0378 20.7459 85.1499 20.8856 84.2579 20.8749C83.1368 20.885 82.024 20.6655 80.9788 20.2283C80.0372 19.8572 79.2185 19.194 78.626 18.3224C78.4418 18.1012 78.4839 17.88 78.7471 17.6588L79.884 16.5243C80.0068 16.4147 80.1156 16.3863 80.2103 16.4392C80.3395 16.5291 80.458 16.6358 80.563 16.7569C81.0255 17.3023 81.5932 17.7321 82.2262 18.0161C82.8537 18.3135 83.5304 18.4717 84.2158 18.4812Z" fill="#9B9B9B"/>
<path d="M108.112 2.65558H104.049C103.863 2.65558 103.77 2.74444 103.77 2.92217V20.3359C103.77 20.6006 103.658 20.7329 103.433 20.7329H101.554C101.306 20.7329 101.185 20.6138 101.185 20.3699V2.95053C101.185 2.75201 101.101 2.64991 100.938 2.64991H96.9378C96.6921 2.64991 96.5693 2.5289 96.5693 2.28689V0.6306C96.5693 0.388585 96.6921 0.267578 96.9378 0.267578H108.112C108.358 0.267578 108.481 0.377241 108.481 0.596566V2.26987C108.481 2.52701 108.358 2.65558 108.112 2.65558Z" fill="#9B9B9B"/>
<path d="M125.503 20.7326H115.471C115.225 20.7326 115.102 20.6116 115.102 20.3695V0.630593C115.102 0.388583 115.225 0.267578 115.471 0.267578H125.382C125.648 0.267578 125.782 0.388583 125.782 0.630593V2.26983C125.789 2.32374 125.784 2.37866 125.768 2.43028C125.752 2.48189 125.725 2.52879 125.689 2.56728C125.654 2.60577 125.61 2.6348 125.562 2.65208C125.514 2.66936 125.463 2.67443 125.413 2.66688H117.934C117.9 2.66103 117.866 2.66388 117.833 2.67521C117.801 2.68653 117.771 2.70601 117.747 2.73203C117.723 2.75806 117.705 2.78989 117.694 2.82491C117.684 2.85993 117.681 2.89713 117.686 2.93347V8.60558C117.686 8.78142 117.76 8.87217 117.902 8.87217H124.092C124.142 8.86462 124.193 8.86969 124.241 8.88697C124.289 8.90426 124.332 8.93328 124.368 8.97177C124.404 9.01026 124.431 9.05716 124.447 9.10878C124.463 9.16039 124.468 9.21531 124.461 9.26922V10.9255C124.467 10.9747 124.462 11.0247 124.447 11.0718C124.432 11.1188 124.408 11.1615 124.375 11.1966C124.343 11.2317 124.303 11.2583 124.259 11.2742C124.216 11.2901 124.169 11.295 124.124 11.2885H117.934C117.771 11.2885 117.686 11.3906 117.686 11.5891V18.0156C117.686 18.2141 117.76 18.3162 117.902 18.3162H125.508C125.754 18.3162 125.876 18.4372 125.876 18.6793V20.3355C125.884 20.39 125.879 20.4455 125.863 20.4976C125.846 20.5497 125.819 20.597 125.782 20.6356C125.746 20.6742 125.702 20.7031 125.653 20.7199C125.605 20.7368 125.553 20.7411 125.503 20.7326Z" fill="#9B9B9B"/>
<path d="M148.557 20.7332H146.783C146.737 20.7407 146.69 20.7365 146.646 20.721C146.601 20.7055 146.561 20.6791 146.528 20.6439C146.495 20.6087 146.469 20.5656 146.454 20.5181C146.439 20.4706 146.435 20.4199 146.441 20.3702V7.49981C146.443 7.48194 146.44 7.46378 146.431 7.44831C146.423 7.43285 146.409 7.421 146.394 7.41473C146.362 7.41473 146.336 7.41473 146.32 7.46578L145.025 11.3456L142.046 19.6044L141.862 19.888C141.814 19.9516 141.753 20.0014 141.683 20.0331C141.613 20.0648 141.537 20.0773 141.462 20.0695H140.262C140.129 20.0765 139.997 20.0472 139.877 19.9845C139.764 19.9003 139.682 19.7757 139.646 19.6328L136.851 11.6122L135.53 7.5622C135.467 7.49414 135.435 7.49414 135.435 7.5622V20.3361C135.435 20.6008 135.321 20.7332 135.093 20.7332H133.345C133.098 20.7332 132.972 20.6141 132.972 20.3702V0.897301C132.972 0.477554 133.159 0.26768 133.535 0.26768H134.745C134.925 0.246986 135.106 0.276284 135.272 0.352764C135.375 0.474738 135.459 0.614745 135.519 0.766839L139.63 12.6445L140.798 16.2918C140.899 16.4677 140.993 16.479 141.072 16.3258C141.276 15.7284 141.476 15.1044 141.672 14.454C141.869 13.8036 142.069 13.1796 142.272 12.5822L146.325 0.732805C146.4 0.591855 146.5 0.468433 146.62 0.369781C146.76 0.293417 146.916 0.260053 147.073 0.273352H148.32C148.402 0.260356 148.486 0.268483 148.565 0.297072C148.643 0.325661 148.715 0.3739 148.773 0.437848C148.85 0.565748 148.889 0.716376 148.883 0.86894V20.3361C148.894 20.6008 148.785 20.7332 148.557 20.7332Z" fill="#9B9B9B"/>
<path d="M160.473 18.4812C161.486 18.5295 162.488 18.2339 163.337 17.636C163.705 17.3484 164 16.9652 164.194 16.522C164.388 16.0787 164.475 15.5898 164.447 15.1006C164.461 14.6064 164.348 14.1178 164.121 13.6882C163.908 13.3056 163.625 12.9736 163.289 12.7126C162.937 12.4384 162.555 12.2099 162.153 12.0319C161.731 11.8428 161.316 11.6708 160.905 11.5157C160.309 11.2964 159.682 11.0412 159.026 10.75C158.383 10.4685 157.778 10.0966 157.226 9.6439C156.679 9.19874 156.22 8.64167 155.873 8.00464C155.502 7.28011 155.32 6.46073 155.347 5.63366C155.334 4.81937 155.481 4.01136 155.778 3.26267C156.052 2.58705 156.456 1.98185 156.963 1.48727C157.476 0.985066 158.077 0.599256 158.731 0.352833C159.433 0.105697 160.167 -0.0131715 160.905 0.00115675C161.744 0.0134318 162.579 0.11412 163.4 0.301784C164.386 0.532089 165.313 0.997216 166.111 1.66311C166.293 1.81815 166.355 1.95618 166.295 2.07718L166.142 2.39483L165.405 3.65406C165.369 3.72241 165.314 3.77767 165.249 3.81297C165.183 3.84826 165.11 3.86204 165.037 3.85258C164.894 3.83117 164.757 3.77492 164.637 3.68809C164.054 3.30319 163.434 2.98568 162.789 2.74083C161.859 2.41033 160.861 2.371 159.91 2.62739C159.526 2.7333 159.167 2.92671 158.858 3.19461C158.55 3.45945 158.307 3.79986 158.147 4.18724C157.958 4.67533 157.868 5.20144 157.884 5.73008C157.882 6.13542 157.996 6.53161 158.21 6.86452C158.44 7.21124 158.727 7.50929 159.058 7.74371C159.426 8.0098 159.818 8.2377 160.226 8.42438C160.658 8.6248 161.089 8.81387 161.521 8.9916C162.198 9.27899 162.865 9.57205 163.521 9.87079C164.151 10.1593 164.741 10.5412 165.274 11.0052C165.789 11.4502 166.213 12.0042 166.521 12.6332C166.865 13.3972 167.03 14.2406 167 15.0892C167.013 15.9307 166.849 16.7644 166.521 17.5283C166.21 18.2387 165.753 18.8633 165.184 19.3547C164.567 19.8661 163.868 20.2507 163.121 20.4892C162.269 20.7743 161.381 20.914 160.489 20.9032C159.368 20.9133 158.255 20.6938 157.21 20.2566C156.268 19.8858 155.45 19.2226 154.857 18.3507C154.671 18.1314 154.712 17.9102 154.978 17.6871L156.115 16.5526C156.238 16.443 156.345 16.4146 156.436 16.4676C156.566 16.5569 156.684 16.6636 156.789 16.7852C157.252 17.3307 157.819 17.7605 158.452 18.0444C159.092 18.3363 159.779 18.4849 160.473 18.4812Z" fill="#9B9B9B"/>
<path d="M34.797 14.2329C37.0237 14.2329 38.8288 12.2876 38.8288 9.88794C38.8288 7.48828 37.0237 5.54297 34.797 5.54297C32.5702 5.54297 30.7651 7.48828 30.7651 9.88794C30.7651 12.2876 32.5702 14.2329 34.797 14.2329Z" fill="#FE330A"/>
</svg>
