<svg width="160" height="40" viewBox="0 0 160 40" fill="none" xmlns="http://www.w3.org/2000/svg">
<path fill-rule="evenodd" clip-rule="evenodd" d="M151.117 10.6453C153.681 10.6453 155.751 11.429 157.328 12.9954C158.904 14.5619 159.693 16.8855 159.693 19.9671V32.031H153.694V20.9074C153.694 19.2365 153.335 17.9887 152.617 17.1665C151.899 16.3444 150.861 15.9324 149.501 15.9324C147.989 15.9324 146.785 16.4094 145.888 17.3625C144.99 18.3155 144.541 19.7318 144.541 21.6123V32.031H138.542V10.9584H144.273V13.4266C145.067 12.5386 146.053 11.8528 147.233 11.3704C148.412 10.887 149.707 10.6453 151.117 10.6453Z" fill="#1C2739"/>
<path fill-rule="evenodd" clip-rule="evenodd" d="M123.198 32.3447C121.019 32.3447 119.064 31.8806 117.334 30.9531C115.603 30.0266 114.251 28.7403 113.277 27.096C112.303 25.4508 111.815 23.5841 111.815 21.494C111.815 19.4057 112.303 17.5389 113.277 15.8937C114.251 14.2485 115.603 12.9631 117.334 12.0357C119.064 11.1092 121.019 10.645 123.198 10.645C125.378 10.645 127.326 11.1092 129.043 12.0357C130.761 12.9631 132.107 14.2485 133.081 15.8937C134.055 17.5389 134.543 19.4057 134.543 21.494C134.543 23.5841 134.055 25.4508 133.081 27.096C132.107 28.7403 130.761 30.0266 129.043 30.9531C127.326 31.8806 125.378 32.3447 123.198 32.3447ZM123.198 27.3304C124.737 27.3304 125.999 26.8022 126.987 25.7447C127.973 24.6873 128.466 23.271 128.466 21.494C128.466 19.7188 127.973 18.3024 126.987 17.245C125.999 16.1876 124.737 15.6584 123.198 15.6584C121.66 15.6584 120.391 16.1876 119.391 17.245C118.391 18.3024 117.892 19.7188 117.892 21.494C117.892 23.271 118.391 24.6873 119.391 25.7447C120.391 26.8022 121.66 27.3304 123.198 27.3304Z" fill="#1C2739"/>
<path fill-rule="evenodd" clip-rule="evenodd" d="M101.779 32.0313H107.778V10.9587H101.779V32.0313Z" fill="#1C2739"/>
<path fill-rule="evenodd" clip-rule="evenodd" d="M39.0193 32.0313H45.0184V2.96899H39.0193V32.0313Z" fill="#1C2739"/>
<path fill-rule="evenodd" clip-rule="evenodd" d="M27.4872 23.632C28.2711 24.4413 29.3533 24.9412 30.5488 24.9412C31.7452 24.9412 32.8275 24.4413 33.6104 23.632C34.3942 22.8236 34.8796 21.7057 34.8796 20.4725C34.8796 19.2384 34.3942 18.1205 33.6104 17.3121C32.8275 16.5037 31.7452 16.0029 30.5488 16.0029C29.3533 16.0029 28.2711 16.5037 27.4872 17.3121C26.7034 18.1205 26.2189 19.2384 26.2189 20.4725C26.2189 21.7057 26.7034 22.8236 27.4872 23.632Z" fill="#55BDF6"/>
<path fill-rule="evenodd" clip-rule="evenodd" d="M56.7087 16.4419C57.6318 15.6591 58.7725 15.2663 60.1316 15.2663C61.4646 15.2663 62.5927 15.6655 63.5149 16.4611C64.4381 17.2585 65.0026 18.3223 65.2075 19.6535H55.017C55.2219 18.2958 55.7855 17.2255 56.7087 16.4419ZM64.8561 26.4632C64.5397 26.6563 64.2161 26.8275 63.8808 26.9585C63.0475 27.2853 62.092 27.4474 61.0161 27.4474C59.452 27.4474 58.1442 27.0692 57.0934 26.3121C56.0417 25.555 55.3756 24.5241 55.0934 23.2176H70.7446C70.8219 22.1996 70.8606 21.6512 70.8606 21.5724C70.8606 19.3789 70.3922 17.4535 69.4565 15.7955C68.5208 14.1375 67.2327 12.8649 65.5913 11.9769C63.9509 11.0888 62.1181 10.6448 60.0929 10.6448C58.0165 10.6448 56.1388 11.1089 54.4597 12.0364C52.7797 12.9629 51.4592 14.2556 50.4983 15.9127C49.5365 17.5716 49.0565 19.432 49.0565 21.4946C49.0565 23.5839 49.5437 25.4506 50.5172 27.0958C51.4916 28.741 52.8758 30.0264 54.6709 30.9538C56.4651 31.8803 58.5289 32.3445 60.8624 32.3445C63.8826 32.3445 66.3078 31.5919 68.1603 30.1124L64.8561 26.4632Z" fill="#1C2739"/>
<path fill-rule="evenodd" clip-rule="evenodd" d="M7.95998 16.4419C8.88223 15.6591 10.0238 15.2663 11.3829 15.2663C12.7159 15.2663 13.844 15.6655 14.7663 16.4611C15.6894 17.2585 16.2539 18.3223 16.4589 19.6535H6.26739C6.47324 18.2958 7.03683 17.2255 7.95998 16.4419ZM16.1074 26.4632C15.791 26.6563 15.4674 26.8275 15.1321 26.9585C14.2989 27.2853 13.3433 27.4474 12.2674 27.4474C10.7033 27.4474 9.39548 27.0692 8.3447 26.3121C7.29301 25.555 6.62695 24.5241 6.3447 23.2176H21.9959C22.0732 22.1996 22.1119 21.6512 22.1119 21.5724C22.1119 19.3789 21.6436 17.4535 20.7078 15.7955C19.7721 14.1375 18.484 12.8649 16.8427 11.9769C15.2022 11.0888 13.3694 10.6448 11.3442 10.6448C9.26784 10.6448 7.38919 11.1089 5.71009 12.0364C4.03099 12.9629 2.71054 14.2556 1.74964 15.9127C0.787845 17.5716 0.306946 19.432 0.306946 21.4946C0.306946 23.5839 0.794137 25.4506 1.76852 27.0958C2.7429 28.741 4.12717 30.0264 5.92133 30.9538C7.71638 31.8803 9.7802 32.3445 12.1128 32.3445C15.133 32.3445 17.5591 31.591 19.4108 30.1124L16.1074 26.4632Z" fill="#1C2739"/>
<path fill-rule="evenodd" clip-rule="evenodd" d="M88.7614 24.5697C87.7484 25.5227 86.4477 25.9988 84.8576 25.9988C83.2684 25.9988 81.9614 25.5227 80.9358 24.5697C79.9102 23.6166 79.3978 22.3697 79.3978 20.8289C79.3978 19.288 79.9102 18.0411 80.9358 17.089C81.9614 16.135 83.2684 15.6589 84.8576 15.6589C86.4477 15.6589 87.7484 16.135 88.7614 17.089C89.7745 18.0411 90.2805 19.288 90.2805 20.8289C90.2805 22.3697 89.7745 23.6166 88.7614 24.5697ZM90.5106 10.9586V13.6612C88.9475 11.6508 86.6652 10.6455 83.6657 10.6455C81.7691 10.6455 80.0324 11.0694 78.4549 11.9181C76.8783 12.7668 75.6288 13.9615 74.7057 15.5024C73.7825 17.0423 73.3214 18.8184 73.3214 20.8289C73.3214 22.8384 73.7825 24.6155 74.7057 26.1554C75.6288 27.6962 76.8783 28.8909 78.4549 29.7387C80.0324 30.5874 81.7691 31.0122 83.6657 31.0122C86.4603 31.0122 88.6392 30.1379 90.2032 28.3883V29.2883C90.2032 31.2219 89.7106 32.6638 88.7228 33.6169C87.7358 34.5699 86.2041 35.0469 84.1277 35.0469C82.7938 35.0469 81.4616 34.8318 80.1286 34.3996C79.3978 34.1644 78.7443 33.8796 78.1529 33.5537L74.4369 37.0437C75.6162 37.9839 77.103 38.7026 78.898 39.1988C80.6922 39.695 82.5897 39.9422 84.5888 39.9422C88.383 39.9422 91.2675 39.0029 93.2405 37.1224C95.2154 35.2419 96.2023 32.3708 96.2023 28.5055V10.9586H90.5106Z" fill="#1C2739"/>
<path fill-rule="evenodd" clip-rule="evenodd" d="M102.147 6.89639C102.819 7.59127 103.75 8.02156 104.778 8.02156C105.806 8.02156 106.736 7.59127 107.409 6.89639C108.083 6.20151 108.499 5.24112 108.499 4.18095C108.499 3.11986 108.083 2.16039 107.409 1.46459C106.736 0.770628 105.806 0.340332 104.778 0.340332C103.75 0.340332 102.819 0.770628 102.147 1.46459C101.474 2.16039 101.057 3.11986 101.057 4.18095C101.057 5.24112 101.474 6.20151 102.147 6.89639Z" fill="#1C2739"/>
</svg>
