<svg width="151" height="29" viewBox="0 0 151 29" fill="none" xmlns="http://www.w3.org/2000/svg">
<path fill-rule="evenodd" clip-rule="evenodd" d="M114.757 18.9767L118.801 10.9344C117.885 10.7911 116.954 10.7911 116.038 10.9344L113.511 16.6089L110.946 10.9344C110.492 10.8645 110.033 10.8289 109.574 10.8278C109.068 10.8278 108.563 10.8651 108.057 10.9344L112.101 18.9767V23.3532H114.757V18.9767ZM32.765 10.9387C32.999 10.9046 33.228 10.8811 33.45 10.8705C33.8944 10.8465 34.3396 10.8465 34.784 10.8705C35.006 10.8811 35.233 10.9046 35.468 10.9387V17.3793C35.468 18.0826 35.496 18.6826 35.551 19.1834C35.606 19.6843 35.718 20.0999 35.884 20.427C36.051 20.7542 36.284 20.9961 36.588 21.1516C36.89 21.3062 37.283 21.3861 37.763 21.3861C38.245 21.3861 38.633 21.3062 38.93 21.1516C39.226 20.9961 39.457 20.7542 39.624 20.427C39.791 20.0988 39.902 19.6843 39.957 19.1834C40.012 18.6826 40.041 18.0816 40.041 17.3793V10.9387C40.287 10.9046 40.521 10.8811 40.744 10.8705C40.966 10.8598 41.182 10.8524 41.391 10.8524C41.614 10.8524 41.839 10.8587 42.068 10.8705C42.295 10.8811 42.527 10.9046 42.761 10.9387V17.9143C42.761 18.7561 42.687 19.5234 42.54 20.2192C42.39 20.9161 42.126 21.5118 41.744 22.0063C41.361 22.5018 40.848 22.8844 40.207 23.154C39.565 23.4246 38.751 23.56 37.763 23.56C36.776 23.56 35.962 23.4246 35.319 23.155C34.678 22.8844 34.166 22.5018 33.784 22.0063C33.3889 21.4867 33.1159 20.874 32.988 20.2192C32.8336 19.4621 32.7588 18.689 32.765 17.9143V10.9387ZM47.459 17.6042C47.0717 17.4694 46.694 17.3048 46.329 17.1119C46.0151 16.9481 45.7275 16.7323 45.477 16.4725C45.2392 16.2195 45.0536 15.9165 44.932 15.5827C44.802 15.2385 44.737 14.825 44.737 14.3402C44.737 13.7541 44.844 13.2351 45.061 12.7854C45.276 12.3378 45.583 11.9617 45.977 11.6558C46.372 11.35 46.847 11.1198 47.403 10.9653C48.0144 10.8029 48.6429 10.7248 49.273 10.733C49.903 10.733 50.491 10.7842 51.04 10.8875C51.588 10.9898 52.166 11.1401 52.771 11.3361C52.6897 12.0256 52.489 12.693 52.179 13.3044C51.994 13.2362 51.805 13.1658 51.614 13.0976C51.4139 13.0255 51.2094 12.9679 51.002 12.925C50.7606 12.8746 50.5169 12.8373 50.272 12.8131C49.9642 12.7824 49.6552 12.7678 49.346 12.7694C49.1324 12.7692 48.9191 12.7863 48.708 12.8206C48.492 12.8547 48.298 12.9186 48.124 13.0103C47.9513 13.1038 47.8047 13.2442 47.699 13.4173C47.589 13.5963 47.532 13.8287 47.532 14.1153C47.532 14.3455 47.575 14.5384 47.662 14.6939C47.748 14.8495 47.866 14.9817 48.013 15.0914C48.161 15.2001 48.328 15.2939 48.513 15.3685C48.698 15.4431 48.883 15.5145 49.068 15.5827L50.179 15.9802C50.649 16.1528 51.074 16.3318 51.457 16.5151C51.838 16.7005 52.163 16.9286 52.428 17.1971C52.693 17.4678 52.9 17.7971 53.048 18.1817C53.196 18.5675 53.27 19.0417 53.27 19.6054C53.27 20.1947 53.156 20.7297 52.928 21.2124C52.694 21.7038 52.3549 22.1298 51.938 22.456C51.505 22.8002 50.972 23.0719 50.338 23.2659C49.701 23.4619 48.969 23.561 48.143 23.561C47.736 23.561 47.371 23.5493 47.051 23.5248C46.4506 23.4832 45.8555 23.3793 45.274 23.2147C44.99 23.1337 44.694 23.0378 44.385 22.9206C44.422 22.5871 44.489 22.2386 44.589 21.8763C44.687 21.514 44.804 21.1485 44.94 20.7797C45.46 20.9758 45.946 21.1239 46.403 21.2198C46.859 21.319 47.347 21.368 47.866 21.368C48.643 21.368 49.253 21.2316 49.698 20.962C50.142 20.6902 50.364 20.28 50.364 19.7269C50.364 19.4509 50.312 19.2218 50.207 19.0364C50.1026 18.8529 49.9641 18.694 49.8 18.5696C49.6243 18.4394 49.4346 18.3321 49.235 18.2499C49.025 18.1647 48.81 18.0805 48.587 18.0006L47.458 17.6042H47.459ZM69.709 21.4532C69.881 21.4767 70.082 21.4958 70.311 21.5065C70.538 21.5172 70.746 21.5225 70.931 21.5225C71.189 21.5225 71.461 21.499 71.745 21.4532C72.028 21.4085 72.294 21.319 72.541 21.1868C72.787 21.0536 72.991 20.8693 73.151 20.6327C73.311 20.3982 73.393 20.0892 73.393 19.7099C73.393 19.3529 73.331 19.0566 73.208 18.8201C73.0827 18.5836 72.9004 18.3872 72.68 18.251C72.45 18.1072 72.18 18.0059 71.865 17.9484C71.5192 17.8885 71.1693 17.86 70.819 17.8631H69.709V21.4543V21.4532ZM70.523 15.9631C70.832 15.9631 71.119 15.9375 71.383 15.8853C71.649 15.8342 71.88 15.7415 72.078 15.6093C72.276 15.4772 72.43 15.2982 72.541 15.0744C72.651 14.8506 72.708 14.565 72.708 14.2187C72.708 13.8851 72.643 13.6123 72.513 13.3992C72.383 13.1861 72.217 13.0188 72.013 12.8984C71.8008 12.7739 71.5689 12.6919 71.329 12.6565C71.0808 12.6164 70.8301 12.5961 70.579 12.5957C70.2882 12.5923 69.9975 12.6101 69.709 12.649V15.9631H70.523ZM67.025 10.9227C67.419 10.8641 67.875 10.8183 68.395 10.7842C69.042 10.7455 69.69 10.7281 70.338 10.7319C71.017 10.7319 71.658 10.7831 72.263 10.8865C72.868 10.9909 73.396 11.1667 73.845 11.4139C74.295 11.6612 74.651 11.9926 74.91 12.406C75.169 12.8216 75.299 13.3385 75.299 13.9597C75.299 14.3284 75.241 14.6716 75.124 14.9881C75.004 15.3035 74.848 15.5805 74.651 15.816C74.459 16.0475 74.2343 16.2455 73.985 16.4032C73.738 16.5588 73.485 16.6536 73.225 16.6877C73.509 16.7229 73.824 16.8028 74.17 16.9296C74.515 17.0575 74.836 17.244 75.132 17.4912C75.429 17.7384 75.675 18.0581 75.872 18.4503C76.07 18.8414 76.169 19.3134 76.169 19.8654C76.169 20.6135 76.018 21.2262 75.716 21.7036C75.4068 22.1866 74.9859 22.5764 74.494 22.8353C73.981 23.1124 73.389 23.301 72.717 23.4044C72.0147 23.5101 71.3062 23.5621 70.597 23.56C70.029 23.56 69.467 23.545 68.913 23.5173C68.2823 23.4818 67.6527 23.4271 67.025 23.3532V10.9227ZM83.499 10.9387C83.9339 10.8718 84.3726 10.8373 84.812 10.8353C85.244 10.8353 85.695 10.8705 86.164 10.9387V21.1772H90.774C90.81 21.3733 90.835 21.5609 90.847 21.7388C90.8734 22.0892 90.8734 22.4413 90.847 22.7917C90.8334 22.9803 90.809 23.1678 90.774 23.3532H83.499V10.9387ZM120.401 10.9387C120.836 10.8717 121.275 10.8372 121.715 10.8353C122.147 10.8353 122.597 10.8705 123.065 10.9387V21.1772H127.675C127.713 21.3733 127.737 21.5609 127.75 21.7388C127.76 21.9168 127.768 22.0862 127.768 22.2482C127.768 22.4325 127.761 22.6137 127.75 22.7917C127.736 22.9803 127.711 23.1679 127.675 23.3532H120.401V10.9387ZM144.112 21.4532C144.285 21.4767 144.485 21.4958 144.713 21.5065C144.943 21.5172 145.148 21.5225 145.333 21.5225C145.593 21.5225 145.863 21.499 146.148 21.4532C146.425 21.4104 146.694 21.3205 146.945 21.1868C147.191 21.0536 147.395 20.8693 147.555 20.6327C147.715 20.3982 147.797 20.0892 147.797 19.7099C147.797 19.3529 147.734 19.0566 147.612 18.8201C147.487 18.5856 147.312 18.3949 147.083 18.251C146.831 18.0979 146.555 17.9954 146.269 17.9484C145.923 17.8885 145.573 17.86 145.222 17.8631H144.112V21.4543V21.4532ZM144.926 15.9631C145.235 15.9631 145.522 15.9375 145.788 15.8853C146.053 15.8342 146.284 15.7415 146.482 15.6093C146.678 15.4772 146.833 15.2982 146.945 15.0744C147.055 14.8506 147.112 14.565 147.112 14.2187C147.112 13.8851 147.047 13.6123 146.916 13.3992C146.791 13.1911 146.619 13.019 146.417 12.8984C146.204 12.7742 145.972 12.6923 145.732 12.6565C145.484 12.6163 145.233 12.596 144.982 12.5957C144.691 12.5923 144.401 12.6101 144.112 12.649V15.9631H144.926ZM141.428 10.9227C141.822 10.8641 142.279 10.8183 142.798 10.7842C143.445 10.7455 144.092 10.7281 144.74 10.7319C145.42 10.7319 146.061 10.7831 146.666 10.8865C147.216 10.9726 147.751 11.1506 148.249 11.4139C148.699 11.6612 149.053 11.9926 149.314 12.406C149.572 12.8216 149.702 13.3385 149.702 13.9597C149.702 14.3284 149.644 14.6716 149.527 14.9881C149.417 15.2923 149.257 15.5728 149.053 15.816C148.862 16.0479 148.637 16.2461 148.388 16.4032C148.14 16.5588 147.888 16.6536 147.63 16.6877C147.914 16.7229 148.227 16.8028 148.574 16.9296C148.92 17.0575 149.241 17.244 149.536 17.4912C149.832 17.7384 150.079 18.0581 150.276 18.4503C150.474 18.8414 150.573 19.3134 150.573 19.8654C150.573 20.6135 150.422 21.2262 150.118 21.7036C149.816 22.181 149.41 22.5583 148.898 22.8353C148.386 23.1124 147.793 23.301 147.119 23.4044C146.447 23.5078 145.74 23.56 145 23.56C144.433 23.56 143.871 23.545 143.316 23.5173C142.685 23.4817 142.056 23.427 141.428 23.3532V10.9227ZM59.731 13.5633L61.268 18.7774H58.121L59.731 13.5633ZM57.491 20.8671H61.899L62.638 23.3532H65.488L61.324 10.9387C61.0656 10.9065 60.8065 10.8809 60.547 10.8619C60.0476 10.8251 59.5464 10.8251 59.047 10.8619C58.814 10.8779 58.567 10.9046 58.307 10.9387L54.105 23.3532H56.733L57.493 20.8671H57.491ZM80.908 10.9387C80.454 10.8713 79.9963 10.8368 79.538 10.8353C79.094 10.8353 78.643 10.8705 78.187 10.9387V23.3532H80.907V10.9387H80.908ZM95.345 10.9387C94.8911 10.8712 94.4333 10.8367 93.975 10.8353C93.531 10.8353 93.081 10.8705 92.625 10.9387V23.3532H95.345V10.9387ZM106.564 13.0795C106.711 12.3746 106.712 11.6438 106.565 10.9387H97.215C97.068 11.6437 97.068 12.3745 97.215 13.0795H100.528V23.3532H103.25V13.0806H106.564V13.0795ZM134.362 13.5633L135.898 18.7774H132.752L134.362 13.5633ZM132.122 20.8671H136.528L137.268 23.3532H140.119L135.954 10.9387C135.695 10.9065 135.436 10.881 135.176 10.8619C134.677 10.8251 134.176 10.8251 133.677 10.8619C133.442 10.8779 133.195 10.9046 132.937 10.9387L128.735 23.3532H131.363L132.122 20.8671ZM11.004 0L7.893 5.08944L6.774 3.897L4.825 1.82009L1.711 5.13846L3.665 7.2207L4.785 8.4142L0 11.7443L15.94 16.9893L11.004 0Z" fill="#9B9B9B"/>
<path fill-rule="evenodd" clip-rule="evenodd" d="M26.956 17.7185C27.034 17.1218 27.078 16.5144 27.078 15.8963C27.078 15.2772 27.034 14.6698 26.956 14.0741H25.513C25.395 13.2877 25.203 12.529 24.943 11.8033L26.19 11.0275C25.7604 9.89561 25.1834 8.83379 24.476 7.87329L23.236 8.6448C22.77 8.03528 22.247 7.47793 21.675 6.98137L22.389 5.65254C21.4874 4.89934 20.4906 4.28553 19.428 3.82928L18.711 5.1613C18.031 4.88424 17.319 4.68177 16.581 4.55389V3.01941C15.543 2.86144 14.4902 2.84819 13.449 2.97998L13.904 4.62103L14.716 7.41827C14.768 7.41507 14.818 7.40975 14.871 7.40975C19.263 7.40975 22.835 11.2172 22.835 15.8974C22.835 20.5776 19.263 24.385 14.871 24.385C10.479 24.385 6.906 20.5776 6.906 15.8974C6.906 15.8228 6.914 15.7535 6.916 15.6811L2.758 14.3117C2.698 14.8318 2.664 15.3592 2.664 15.8963C2.664 16.5144 2.707 17.1218 2.786 17.7185H4.228C4.346 18.5049 4.538 19.2637 4.798 19.9883L3.548 20.7609C3.97819 21.8927 4.5555 22.9545 5.263 23.9151L6.505 23.1478C6.97065 23.757 7.49335 24.314 8.065 24.8102L7.352 26.1401C8.248 26.886 9.242 27.5041 10.312 27.9623L11.03 26.6303C11.71 26.9073 12.422 27.1098 13.16 27.2377V28.7743C13.72 28.8585 14.29 28.9043 14.87 28.9043C15.45 28.9043 16.02 28.8585 16.58 28.7743V27.2377C17.319 27.1098 18.03 26.9073 18.71 26.6303L19.457 27.9516C20.5113 27.4948 21.5005 26.8833 22.396 26.1348L21.675 24.8113C22.248 24.3147 22.77 23.7563 23.235 23.1478L24.483 23.9098C25.1942 22.942 25.7733 21.8718 26.203 20.731L24.943 19.9893C25.203 19.2637 25.395 18.5049 25.513 17.7185H26.956Z" fill="#9B9B9B"/>
</svg>
